<?xml version="1.0" encoding="utf-8"?>
<!-- Generator: Adobe Illustrator 21.1.0, SVG Export Plug-In . SVG Version: 6.00 Build 0)  -->
<svg version="1.1" id="Capa_1" xmlns="http://www.w3.org/2000/svg" xmlns:xlink="http://www.w3.org/1999/xlink" x="0px" y="0px"
	 viewBox="0 0 438.5 438.5" style="enable-background:new 0 0 438.5 438.5;" xml:space="preserve">
<style type="text/css">
	.st0{fill:#FFFFFF;}
</style>
<g>
	<path class="st0" d="M414.4,24.1C398.3,8,379,0,356.3,0H82.2c-22.6,0-42,8-58.1,24.1C8,40.2,0,59.6,0,82.2v274.1
		c0,22.6,8,42,24.1,58.1c16.1,16.1,35.5,24.1,58.1,24.1h274.1c22.6,0,42-8,58.1-24.1c16.1-16.1,24.1-35.5,24.1-58.1V82.2
		C438.5,59.6,430.5,40.2,414.4,24.1z M181.6,262.1c-11.8,11.8-26.1,17.7-42.8,17.7c-16.8,0-31-5.9-42.8-17.7
		c-11.8-11.8-17.7-26.1-17.7-42.8c0-16.8,5.9-31,17.7-42.8c11.8-11.8,26.1-17.7,42.8-17.7c16.8,0,31,5.9,42.8,17.7
		c11.8,11.8,17.7,26.1,17.7,42.8C199.3,236,193.4,250.3,181.6,262.1z M342.6,262.1c-11.8,11.8-26.1,17.7-42.8,17.7
		c-16.7,0-31-5.9-42.8-17.7c-11.8-11.8-17.7-26.1-17.7-42.8c0-16.8,5.9-31,17.7-42.8c11.8-11.8,26.1-17.7,42.8-17.7
		c16.7,0,31,5.9,42.8,17.7c11.8,11.8,17.7,26.1,17.7,42.8C360.3,236,354.4,250.3,342.6,262.1z"/>
</g>
</svg>
